<svg xmlns="http://www.w3.org/2000/svg" width="16" height="23"><path fill="#222" d="M12.181 0a.372.372 0 01.28.113l3.427 3.428a.387.387 0 01.104.352l-.002 11.724v6.855a.363.363 0 01-.107.268l-.056.046a.373.373 0 01-.135.058l-.077.007H.38a.379.379 0 01-.379-.38V.382c0-.21.17-.38.38-.38H12.18zm3.055 15.997H.763v6.091h14.473v-6.091zm-11.43.763c.84 0 1.523.682 1.523 1.521a1.518 1.518 0 01-1.522 1.522h-.764v1.143a.38.38 0 11-.758.004v-3.81c0-.21.17-.38.38-.38h1.142zm9.524 0a.379.379 0 110 .758h-1.906v1.147h1.906a.379.379 0 110 .759l-1.906-.001v1.523a.38.38 0 11-.759.005l.001-3.812c0-.21.17-.38.38-.38h2.284zm-6.096 0a2.29 2.29 0 012.285 2.285 2.286 2.286 0 01-2.285 2.285h-.38a.38.38 0 01-.378-.38v-3.81c0-.21.17-.38.379-.38h.38zm0 .758v3.048a1.524 1.524 0 000-3.048zm-3.423 0h-.763v1.527h.763c.42 0 .763-.344.763-.764a.766.766 0 00-.763-.763zM11.808.764L.763.765v14.472h14.473V4.192h-3.048a.38.38 0 01-.38-.379V.764zm-3.953 3.05c.151 0 .28.142.374.245.108.12.201.263.237.424.085.401.004.856-.063 1.253-.058.34-.133.679-.214 1.014.513 1.044 1.236 2.106 1.933 2.834a7.4 7.4 0 011.276-.134c.593 0 .955.138 1.102.42.125.236.076.508-.142.811-.215.29-.505.447-.844.447-.46 0-1-.29-1.598-.857-1.08.223-2.334.62-3.351 1.057-.317.665-.625 1.201-.906 1.594-.388.54-.728.79-1.058.79a.61.61 0 01-.366-.121c-.397-.29-.45-.616-.424-.839.072-.611.835-1.25 2.272-1.901A25.133 25.133 0 007.52 6.82c-.38-.817-.745-1.87-.478-2.49.094-.214.21-.384.429-.455a1.97 1.97 0 01.384-.063zM5.61 11.792c-.813.446-1.143.816-1.165 1.026 0 .036-.013.125.165.259.058-.018.388-.165 1-1.285zM7.953 7.66a25.86 25.86 0 01-1.013 2.834 18.577 18.577 0 012.463-.754 12.814 12.814 0 01-1.45-2.08zm3.52 2.428c-.191 0-.432.009-.686.04.312.232.388.352.589.352.089 0 .343-.004.46-.165a.493.493 0 00.084-.151c-.044-.027-.107-.076-.446-.076zM7.726 4.487c-.04.013-.504.66.036 1.205.361-.794-.018-1.21-.036-1.205zM12.567 1.3v2.128h2.129L12.567 1.3z"/></svg>