<svg xmlns="http://www.w3.org/2000/svg" width="32" height="32"><g fill="none"><rect width="32" height="32" fill="#222" rx="16"/><path fill="#FFF" d="M25.315 11.326a2.442 2.442 0 00-1.72-1.73C22.08 9.187 16 9.187 16 9.187s-6.08 0-7.596.41a2.442 2.442 0 00-1.719 1.73 25.628 25.628 0 00-.406 4.71 25.63 25.63 0 00.406 4.71 2.443 2.443 0 001.72 1.73c1.515.408 7.595.408 7.595.408s6.08 0 7.596-.408a2.443 2.443 0 001.719-1.73c.28-1.555.416-3.131.406-4.71a25.64 25.64 0 00-.406-4.71zm-11.303 7.601v-5.781l5.081 2.89-5.081 2.891z"/></g></svg>