<svg xmlns="http://www.w3.org/2000/svg" width="33" height="32"><g fill="none"><circle cx="16.085" cy="16" r="16" fill="#222"/><path fill="#FFF" d="M24.121 12.966a10.97 10.97 0 01-16.876 9.74 7.74 7.74 0 005.71-1.598 3.862 3.862 0 01-3.602-2.678 3.85 3.85 0 001.741-.066A3.859 3.859 0 018 14.583v-.05a3.828 3.828 0 001.748.483 3.86 3.86 0 01-1.194-5.149 10.95 10.95 0 007.95 4.03 3.86 3.86 0 016.573-3.518 7.73 7.73 0 002.449-.936 3.87 3.87 0 01-1.696 2.134 7.7 7.7 0 002.215-.607 7.85 7.85 0 01-1.924 1.996z"/></g></svg>