<svg xmlns="http://www.w3.org/2000/svg" width="32" height="32"><g fill="none"><rect width="32" height="32" fill="#222" rx="16"/><path fill="#FFF" d="M24.283 12.564a6.117 6.117 0 00-.387-2.023 4.261 4.261 0 00-2.437-2.437 6.117 6.117 0 00-2.023-.387c-.889-.04-1.173-.05-3.436-.05s-2.547.01-3.436.05a6.117 6.117 0 00-2.023.387 4.261 4.261 0 00-2.437 2.437 6.117 6.117 0 00-.387 2.023c-.04.889-.05 1.173-.05 3.436s.01 2.547.05 3.436c.014.691.145 1.375.387 2.023a4.261 4.261 0 002.438 2.437 6.116 6.116 0 002.022.387c.89.04 1.173.05 3.436.05s2.547-.01 3.436-.05a6.116 6.116 0 002.023-.387 4.261 4.261 0 002.437-2.437 6.117 6.117 0 00.387-2.023c.04-.889.05-1.173.05-3.436s-.01-2.547-.05-3.436zm-1.5 6.803a4.611 4.611 0 01-.287 1.548 2.76 2.76 0 01-1.581 1.581 4.611 4.611 0 01-1.548.287c-.878.04-1.142.049-3.367.049s-2.489-.009-3.367-.049a4.611 4.611 0 01-1.548-.287 2.76 2.76 0 01-1.581-1.581 4.611 4.611 0 01-.287-1.548c-.04-.878-.049-1.142-.049-3.367s.009-2.489.049-3.367a4.611 4.611 0 01.287-1.548 2.76 2.76 0 011.581-1.581 4.611 4.611 0 011.548-.287c.878-.04 1.142-.049 3.367-.049s2.489.009 3.367.049a4.611 4.611 0 011.548.287 2.76 2.76 0 011.581 1.581c.184.496.28 1.02.287 1.548.04.878.049 1.142.049 3.367s-.009 2.489-.049 3.367z"/><path fill="#FFF" d="M16 11.72a4.28 4.28 0 100 8.56 4.28 4.28 0 000-8.56zm0 7.058a2.778 2.778 0 110-5.556 2.778 2.778 0 010 5.556z"/><circle cx="20.448" cy="11.552" r="1" fill="#FFF"/></g></svg>