<svg xmlns="http://www.w3.org/2000/svg" width="70" height="70"><path fill="#345CD6" d="M35.522 37.612c1.396.019 2.65-1.025 3.135-2.609l-1.285-.525c-.29.924-1.033 1.523-1.85 1.493-.816.03-1.559-.57-1.85-1.493l-1.284.525c.484 1.584 1.739 2.628 3.134 2.609zM0 35a34.918 34.918 0 0011.871 26.237H0v8.619h31.577v-.026c1.127.11 2.268.17 3.423.17 19.33 0 35-15.67 35-35S54.33 0 35 0 0 15.67 0 35zm68.536 0C68.516 53.513 53.513 68.515 35 68.536A33.536 33.536 0 1168.536 35zM1.464 62.7h12.18a34.931 34.931 0 0010.864 5.691H1.464v-5.69zM35.522 3.134a9.413 9.413 0 00-9.403 9.403c0 .202.018.398.03.597-.001.018.003.035.003.054a9.396 9.396 0 0018.727.26l.002-.002a.708.708 0 00.018-.39c.01-.172.026-.343.026-.519a9.414 9.414 0 00-9.403-9.403zm0 1.461a7.946 7.946 0 017.925 7.6 29.41 29.41 0 00-15.85.005 7.945 7.945 0 017.925-7.605zm0 15.885a7.947 7.947 0 01-7.846-6.774 28.23 28.23 0 0115.693-.007 7.948 7.948 0 01-7.847 6.78zm21.941 4.595a9.414 9.414 0 00-9.403 9.403 9.403 9.403 0 009.403 9.403 9.403 9.403 0 000-18.806zm7.942 9.403a7.945 7.945 0 01-7.602 7.924 29.498 29.498 0 00.003-15.849 7.945 7.945 0 017.6 7.925zM56.3 42.325a7.931 7.931 0 01.002-15.695 28.404 28.404 0 01-.002 15.695zM5.224 33.433a9.413 9.413 0 009.402 9.403 9.403 9.403 0 10-9.402-9.403zm17.345 0a7.947 7.947 0 01-6.774 7.846 28.237 28.237 0 01-.007-15.693 7.947 7.947 0 016.78 7.847zm-8.28 7.925a7.932 7.932 0 01-.004-15.85 29.398 29.398 0 00.005 15.85zm21.233 4.612a9.414 9.414 0 00-9.403 9.403 9.403 9.403 0 109.403-9.403zm0 1.461a7.948 7.948 0 017.848 6.781 28.331 28.331 0 01-15.695 0 7.947 7.947 0 017.847-6.78zm0 15.884a7.945 7.945 0 01-7.924-7.602 30.32 30.32 0 008.099 1.098 27.32 27.32 0 007.75-1.096 7.946 7.946 0 01-7.925 7.6z"/></svg>