<svg xmlns="http://www.w3.org/2000/svg" width="70" height="70"><path fill="#445CD1" d="M38.517 30.641c.298-.2.588-.4.89-.602l1.622-1.084-.174-.256h5.626l-3.404-4.583-5.985-5.58 3.276-2.892 3.87 2.159.08-.194c.11-.261.274-.496.483-.687l.001-.001 2.448-2.241a28.58 28.58 0 00-13.24-3.534v15.495c-.649.446-1.3.897-1.954 1.355V11.168a28.6 28.6 0 00-16.32 6.09v11.44h15.318c-.9.639-1.8 1.286-2.7 1.943H15.736v9.986c-.662.573-1.314 1.147-1.955 1.721V30.642H6.272a28.179 28.179 0 000 17.905h1.086a75.224 75.224 0 00-2.26 2.48 30.247 30.247 0 012.596-27.829c5.359-8.309 14.44-13.518 24.362-13.973V9.19h1.955v.013a30.598 30.598 0 0114.764 4.08l.572-.523-6.948-6.558 4.693-4.145 7.452 5.944L62.722.513A1.901 1.901 0 0164.035 0l4.243.068c.446.002.87.19 1.169.52l.16.18c.297.34.436.788.382 1.235l-.477 4.135c-.062.473-.3.906-.666 1.213l-8.449 7.194 5.065 8.052-4.394 3.879.214.453a30.235 30.235 0 01-1.53 28.212l-.262.427c-5.472 8.8-15.07 14.231-25.48 14.418V70h-1.954v-.035a30.564 30.564 0 01-15.674-5.148 30.65 30.65 0 01-8.29-8.225c.41-.51.844-1.034 1.315-1.579a28.764 28.764 0 004.373 5.237v-9.76h-.124c.66-.654 1.353-1.323 2.08-2.007v.064h16.32v-13.39c.64-.463 1.292-.93 1.955-1.4v14.79h16.32V30.641h-2.348l-.035.032-.023-.032zm-1.318-3.893l1.087 1.612c-.135.09-.265.18-.4.271-.963.65-1.91 1.298-2.838 1.942-.35.243-.705.487-1.05.73-.659.462-1.308.923-1.948 1.383a176.878 176.878 0 00-16.26 13.056 117.095 117.095 0 00-2.882 2.73 98.111 98.111 0 00-1.93 1.941c-.92.955-1.77 1.879-2.552 2.771a62.076 62.076 0 00-1.35 1.59c-3.397 4.151-5.126 7.48-5.126 9.64a2.423 2.423 0 001.102 2.196c.244.159.504.29.777.39.096.038.212.062.315.095.214.07.431.13.652.178.138.027.293.044.44.066.229.034.458.067.708.086.172.013.356.018.538.024.165.006.317.021.49.021.081 0 .176-.01.259-.012.296-.004.611-.022.93-.043.23-.014.454-.025.696-.048.348-.034.719-.084 1.09-.135.241-.033.472-.059.723-.099.426-.068.877-.157 1.33-.247.222-.044.433-.078.661-.128.693-.149 1.41-.319 2.158-.515l.497 1.877a33.756 33.756 0 01-8.318 1.295 8.998 8.998 0 01-5.032-1.192 4.377 4.377 0 01-1.964-3.81c0-2.892 2.166-6.875 6.07-11.52a75.479 75.479 0 012.192-2.48 83.649 83.649 0 011.85-1.942 111.315 111.315 0 013.728-3.607c.632-.584 1.28-1.173 1.948-1.768a188.878 188.878 0 0115.874-12.523 247.945 247.945 0 015.534-3.825zM50.33 50.49H34.01v17.553a28.602 28.602 0 0016.32-5.467V50.49zm-18.275 0h-16.32v11.44a28.6 28.6 0 0016.32 6.091V50.49zm27.862 0h-7.632v10.528a28.593 28.593 0 007.632-10.528zm.726-19.849h-8.358v17.906h8.359a28.169 28.169 0 00-.001-17.906zM13.78 18.94A28.564 28.564 0 007 28.7h6.781zm36.551 9.63l-.147.13h.147v-.13zm3.77-8.662l-1.815 1.545V28.7h7.632a28.492 28.492 0 00-5.818-8.792zm-6.514 4.24l-1.728.444 2.39 3.217.635-.56-1.297-3.1zm11.319-8.308l-2.378 2.02 4.533 6.024 1.868-1.65-4.023-6.394zm5.097-13.897L46.129 18.348l-.006.006-1.706 4.134.185.208.064.071.007.008.073.08 4.32-1.218L67.575 5.875l.446-3.868-4.017-.065zM40.625 18.015l-.634.56 2.813 2.623.622-1.62-2.8-1.563zM47.155 4.6l-1.868 1.649 5.49 5.18 2.298-2.109-5.92-4.72zm13.738 22.03l.176-.155-.176.155zm-10.56-.985v-2.531c-.214.18-.463.313-.732.39l-.147.042.878 2.1z"/></svg>