<svg xmlns="http://www.w3.org/2000/svg" width="70" height="70"><path fill="#345CD6" d="M44.093 0c.24 0 .47.09.64.252.142.135.232.31.258.496L45 .861v1.772a.87.87 0 01-.679.826l-.11.02v.7h2.815c.288.001.56.128.737.344a.828.828 0 01.162.756c-.059.084-2.667 8.437-5.953 10.271a11.3 11.3 0 01-3.729 4.334c.031.09.053.184.064.278l.01.142v.714c0 .728-.585 1.326-1.332 1.394l-.142.006v4.201h2.321c.709 0 1.291.514 1.357 1.17l.006.126v1.505h1.555a.74.74 0 01.7.423l.037.102.803 2.962h5.747v8.401h-2.947v3.501H70v7.001h-1.474V70H1.474V58.098H0v-7.002h23.579v-9.802h-2.21v-8.401h5.703l.619-2.927a.723.723 0 01.631-.555l.105-.005h1.776V27.9c0-.674.54-1.227 1.232-1.29l.131-.006h1.585v-4.369a1.396 1.396 0 01-.732-1.094l-.005-.138v-.679a1.43 1.43 0 01.051-.35 11.184 11.184 0 01-3.824-4.383C25.37 13.821 22.68 5.384 22.68 5.3a.874.874 0 01.162-.756.948.948 0 01.615-.335l.122-.008h2.874v-.7h-.494c-.462 0-.843-.329-.9-.753l-.006-.108V.86c0-.439.345-.801.792-.854L25.96 0h18.134zM23.579 58.112H2.947v10.502H23.58V58.112zm21.368-16.804H25.053v27.306h19.894V41.308zM67.053 51.81H46.42v16.804h20.632V51.81zm-43.474.7H1.474v4.201h22.105v-4.2zm44.947-6.3H46.421v4.2h22.105v-4.2zM47.895 34.306H22.842v5.601h25.053v-5.601zm-8.842-6.301h-7.369v1.4h.737v1.4H29.04l-.442 2.1h13.499l-.568-2.1h-6.896v-1.4h4.42v-1.4zm9.527-3.543l.545.35a4.252 4.252 0 011.783 2.352c.117-.03.237-.05.357-.06l.181-.01.227.006c1.546.078 2.275.875 2.493 1.408l.029.078.11.35-.236.287a4.082 4.082 0 01-2.557 1.441l-.235.03h-.044a3.115 3.115 0 01-2.27-1.086c-.383-.231-1.65-.994-1.805-2.1a3.646 3.646 0 01.848-2.41l.147-.167.427-.47zm-26.534-.098l.428.476a3.617 3.617 0 01.994 2.59c-.154 1.128-1.43 1.898-1.805 2.1a3.082 3.082 0 01-2.066 1.073l-.203.013h-.052a4.127 4.127 0 01-2.642-1.29l-.15-.173-.236-.294.118-.35c.169-.523.89-1.404 2.52-1.48l.228-.005.181.01c.12.01.24.03.357.06a4.2 4.2 0 011.593-2.238l.197-.135.538-.357zm29.58 4.11h-.165c-.338.05-.652.194-.904.41l-.12.115.147.09c.202.11.43.173.663.183.475-.05.92-.244 1.268-.553a2.037 2.037 0 00-.703-.23l-.186-.016zm-32.446-.07l-.187-.002c-.31.012-.612.097-.881.247.3.274.677.455 1.084.524l.176.022v.02c.244-.016.478-.098.674-.233l.114-.088-.116-.108a1.696 1.696 0 00-.705-.353l-.159-.03h-.187zm29.686-1.976v.001l-.067.124a1.616 1.616 0 00-.167.751c.1.279.28.524.517.71l.124.089.059-.056a.817.817 0 00.154-.518 1.896 1.896 0 00-.512-1l-.108-.101zm-27.1-.083c-.293.257-.5.59-.598.955l-.035.158v.021a.926.926 0 00.09.382l.064.116.06.056a1.53 1.53 0 00.655-.785 1.54 1.54 0 00-.236-.903zm13.602-3.942h-.736v4.201h.736v-4.2zm13.507 4.012h-.022l.013.013.009-.013zm-28.413-5.678l.206.392c.401.822.37 1.774-.082 2.57a3.021 3.021 0 01-2.217 1.477l-.405.063-.213.035c-.28.04-.564.062-.848.063a3.36 3.36 0 01-2.166-.7 3.611 3.611 0 01-1.23-2.59v-.253l.176-.196c.096-.112 1.017-1.07 3.183.098.132.077.256.166.369.266l.152-.16a3.704 3.704 0 012.61-1.065h.465zm30.196 0a3.665 3.665 0 012.622 1.074l.141.151.118-.098a2.04 2.04 0 01.258-.168c2.087-1.13 3.024-.271 3.17-.112l.013.014.17.196v.252a3.609 3.609 0 01-1.209 2.584 3.344 3.344 0 01-2.159.7c-.19 0-.382-.01-.571-.031l-.284-.039h-.213l-.2-.022-.198-.034v-.028h-.03c-.944-.129-1.768-.676-2.22-1.474a2.73 2.73 0 01-.152-2.395l.08-.178.207-.392h.457zm4.944 1.828a2.87 2.87 0 00-1.076.392.651.651 0 00-.682.232.578.578 0 00-.007.689.65.65 0 00.679.243.613.613 0 00.475-.52c.314-.275.529-.638.611-1.036zm-40.519-.028c.084.398.298.76.612 1.036a1.83 1.83 0 001.076.357 1.685 1.685 0 00-.612-1.008h-.037a2.957 2.957 0 00-1.039-.385zm36.105-.309c-.018.278.038.555.162.806l.082.147v.02c.214.29.526.503.884.603a1.225 1.225 0 00-.118-1.03 1.718 1.718 0 00-1.01-.546zM19.489 22.2c-.392.06-.749.255-1.002.547h-.066c-.157.305-.18.657-.066.98.36-.089.675-.294.891-.581a1.53 1.53 0 00.243-.946zm17.353-1.897h-2.947v.7h2.947v-.7zm19.263-6.008h.013l.36.043.185.3c.585.942.722 2.074.376 3.117-.42.848-1.217 1.468-2.167 1.694l-.206.042h-.044a3.996 3.996 0 01-1.665.378 2.923 2.923 0 01-1.245-.266 3.198 3.198 0 01-1.683-2.18l-.034-.2-.052-.456.428-.224a3.624 3.624 0 012.688-.287l.222.07h.044a.675.675 0 01.052-.16c.94-1.977 2.555-1.88 2.728-1.87zM17.25 16.09a.165.165 0 01.051.12l.001.041h.044a3.66 3.66 0 012.703.122l.208.102.42.224-.044.455c-.152 1.005-.801 1.88-1.747 2.353a2.775 2.775 0 01-1.238.273 4.144 4.144 0 01-1.446-.282l-.226-.096-.209-.043c-.962-.23-1.766-.863-2.179-1.728a3.73 3.73 0 01.255-2.872l.114-.202.184-.301.368-.042c.067-.007 1.769-.175 2.741 1.876zM43.474 1.4H26.526v.7h10.316v1.4h-8.997c-.11 2.731-.059 12.03 5.527 15.488.124-.049.255-.08.389-.092l.134-.006h2.896c.147.001.294.025.434.07 5.46-3.42 5.618-12.412 5.517-15.312l-.005-.147h-3.684V2.1h4.42v-.7zm8.171 16.153c.124.284.333.526.6.697l.137.08.03-.028c.14.271.484.386.772.256a.542.542 0 00.28-.73.595.595 0 00-.765-.275 1.702 1.702 0 00-1.054 0zm-33.526-.064l-.147.043v-.028a1.408 1.408 0 00-.686.882c.334.079.686.052 1.002-.077.332-.172.592-.446.737-.777a1.648 1.648 0 00-.906-.043zm37.476-1.757a1.87 1.87 0 00-.877.973c-.112.394-.067.812.125 1.177.358-.13.654-.378.833-.7a2.008 2.008 0 00-.081-1.45zm-40.548-.001l-.068.16a1.948 1.948 0 00-.036 1.27c.176.324.473.573.833.7a1.54 1.54 0 00.118-1.17 1.815 1.815 0 00-.722-.887l-.125-.073zm.007-.013h-.03l.023.013.007-.013zm40.497-8.92l.442.33A3.554 3.554 0 0157.4 9.675c-.06.96-.567 1.84-1.377 2.404l-.178.116-.331.238-.295.337a3.625 3.625 0 01-2.23 1.134l-.216.02h-.2a3.952 3.952 0 01-2.522-1.396l-.137-.179-.31-.448.376-.399a3.83 3.83 0 012.756-1.19 2.8 2.8 0 011.031.266 2.353 2.353 0 01-.14-.826 3.64 3.64 0 011.307-2.507l.167-.133.45-.315zm-40.438-.042l.456.322a3.633 3.633 0 011.474 2.633 2.3 2.3 0 01-.14.826 2.839 2.839 0 011.04-.266c.969.023 1.89.391 2.586 1.026l.169.164.368.4-.31.447a3.88 3.88 0 01-2.465 1.542l-.216.034h-.2a3.627 3.627 0 01-2.298-1.01l-.148-.152-.294-.33-.332-.245c-.9-.556-1.47-1.487-1.532-2.506a3.499 3.499 0 011.228-2.41l.172-.139.442-.336zm37.466 4.958h-.001l-.134.004a1.873 1.873 0 00-.924.317c.31.278.705.452 1.127.498a1.53 1.53 0 00.958-.295c-.23-.254-.54-.43-.883-.5l-.143-.024zm-34.548-.05c-.4.044-.767.232-1.025.525.275.194.61.295.95.287a2.06 2.06 0 001.136-.49 1.848 1.848 0 00-1.061-.322zm8.414-6.063h-2.13a33.74 33.74 0 003.014 6.511 28.438 28.438 0 01-.884-6.51zm19.902 0h-2.136a28.057 28.057 0 01-.768 5.858l-.16.64.014-.022a33.062 33.062 0 003.05-6.476zm6.264 6.112h-.037l.005.001h.032zm2.913-3.021l-.107.135c-.207.285-.33.62-.353.968.01.325.137.637.361.882.291-.263.468-.62.494-1.001a1.679 1.679 0 00-.302-.863l-.093-.121zM15.1 8.661l-.083.1a1.623 1.623 0 00-.332.866c.027.38.203.738.494 1.001.218-.251.345-.563.361-.89a1.864 1.864 0 00-.348-.96L15.1 8.66zm40.428.028h-.007l.003.003.004-.003zm-40.408-.05h-.037l.005.006.012.016.02-.021z"/></svg>