<svg xmlns="http://www.w3.org/2000/svg" width="132" height="14"><path d="M118.606 2.931c.919 0 1.75.394 2.363 1.181v-.918h2.012v7.087c0 2.888-2.231 3.588-4.112 3.588-1.313 0-2.363-.263-3.281-1.138l.918-1.444c.613.657 1.4.963 2.363.963.962 0 2.1-.438 2.1-1.925v-.787c-.613.743-1.4 1.18-2.363 1.18-1.925 0-3.368-1.355-3.368-3.893 0-2.494 1.443-3.894 3.368-3.894zm-18.2-2.625v10.5h-2.012v-.962c-.613.744-1.444 1.181-2.363 1.181-1.925 0-3.369-1.444-3.369-3.981 0-2.494 1.444-3.981 3.37-3.981.918 0 1.75.393 2.362 1.18V.307h2.012zM16.931.131c3.194 0 5.513 2.275 5.513 5.425s-2.319 5.425-5.513 5.425c-3.15 0-5.469-2.275-5.469-5.425s2.32-5.425 5.47-5.425zm40.556 0C60.681.131 63 2.406 63 5.556s-2.319 5.425-5.513 5.425c-3.15 0-5.468-2.275-5.468-5.425S54.338.131 57.487.131zM83.52 3.02c2.537 0 4.025 1.837 4.025 3.981 0 2.188-1.531 3.981-4.025 3.981-2.494 0-4.025-1.837-4.025-3.981S81.026 3.02 83.52 3.02zm44.187-.044c1.313 0 2.319.438 3.063 1.05l-.788 1.356c-.437-.481-1.312-.875-2.231-.875-.744 0-1.181.35-1.181.744 0 1.138 4.506.175 4.506 3.238 0 1.4-1.181 2.45-3.281 2.45-1.356.043-2.625-.394-3.456-1.138l.875-1.4c.568.525 1.662 1.05 2.625 1.05.875 0 1.268-.35 1.268-.831 0-1.269-4.506-.219-4.506-3.238 0-1.269 1.138-2.406 3.106-2.406zm-16.537.044c1.662 0 2.45.962 2.45 2.406v5.381h-1.969V6.213c0-1.05-.569-1.4-1.4-1.4-.787 0-1.4.437-1.75.918v5.119h-2.013V3.194h2.013V4.2c.481-.569 1.4-1.181 2.669-1.181zM26.775.306v10.5h-2.231V.306h2.231zm-19.906 0l4.025 10.5H8.356L7.7 9.013H3.194l-.656 1.793H0L4.069.306h2.8zm33.906 0v1.969h-3.019v8.531h-2.275V2.275H32.42V.306h8.356zm3.281 0l2.625 4.2 2.582-4.2H51.8L47.775 6.52v4.287h-2.231V6.52L41.519.306h2.537zm26.95 0V4.42h4.944V.306h2.275v10.5H75.95V6.388h-4.944v4.418h-2.231V.306h2.231zm20.125 0v10.5H89.12V.306h2.012zm13.344 2.888v7.612h-2.012V3.194h2.012zM83.519 4.813c-1.225 0-1.925 1.006-1.925 2.187 0 1.181.7 2.231 1.925 2.231 1.225-.043 1.968-1.05 1.968-2.231 0-1.181-.7-2.188-1.968-2.188zm13.125-.044c-1.138 0-1.925.918-1.925 2.231 0 1.313.787 2.188 1.925 2.188.7 0 1.4-.35 1.75-.832V5.644c-.35-.525-1.05-.875-1.75-.875zM57.53 2.1c-1.925 0-3.194 1.487-3.194 3.456 0 1.969 1.225 3.456 3.194 3.456 1.925 0 3.194-1.487 3.194-3.456 0-1.969-1.269-3.456-3.194-3.456zm-40.6 0c-1.925 0-3.194 1.487-3.194 3.456 0 1.969 1.226 3.456 3.194 3.456 1.925 0 3.194-1.487 3.194-3.456 0-1.969-1.269-3.456-3.194-3.456zm102.29 2.669c-1.138 0-1.925.787-1.925 2.1 0 1.312.787 2.1 1.925 2.1.656 0 1.4-.394 1.706-.875v-2.45c-.35-.525-1.05-.875-1.706-.875zM5.469 2.537L3.806 7.044h3.282l-1.62-4.506zM103.425 0c.656 0 1.181.525 1.181 1.181s-.525 1.181-1.181 1.181c-.612 0-1.181-.525-1.181-1.18 0-.657.569-1.182 1.181-1.182z"/></svg>