<svg xmlns="http://www.w3.org/2000/svg" viewBox="0 0 124 24"><defs><style>.cls-1{fill:#174e9d}</style></defs><g id="images_logo_AOIPro"><path class="cls-1" d="M50.582 4.352a3.54 3.54 0 00-.587-2.465c-.39-.368-.708-.586-2.03-.653L47.753.59h8.934l-.21.644c-1.32.066-1.64.285-2.032.653a3.56 3.56 0 00-.585 2.465v15.354a3.58 3.58 0 00.585 2.47c.393.365.711.582 2.033.65l.209.738h-8.934l.21-.739c1.323-.067 1.64-.284 2.03-.65a3.561 3.561 0 00.588-2.47zM16.75 22.497a4.896 4.896 0 01-1.626.329l-.21.738h8.54l-.21-.738a2.963 2.963 0 01-1.625-.632 8.397 8.397 0 01-1.293-2.42L12.558.182H11.3L4.749 17.129a25.991 25.991 0 01-2.146 4.69 3.892 3.892 0 01-2.37 1.008l-.212.738H7.58l-.21-.739a3.476 3.476 0 01-1.34-.302c-.445-.225-1.087-.63-1.087-1.216a4.11 4.11 0 01.246-1.191c.056-.17.744-1.97 1.627-4.276h8.399l1.346 3.457a10.264 10.264 0 01.443 1.35 4.445 4.445 0 01.159.896c0 .507-.137.826-.413.953zm-9.44-7.943c1.657-4.318 3.68-9.565 3.68-9.565l3.723 9.565zM34.419.067c-6.08 0-11.011 4.945-11.011 12s4.93 12 11.011 12 11.011-4.944 11.011-12-4.929-12-11.011-12zm0 22.604c-3.943 0-7.138-4.18-7.138-10.604s3.195-10.603 7.138-10.603 7.139 4.179 7.139 10.603-3.196 10.604-7.139 10.604zM110.898 8.12c-3.971 0-7.19 3.285-7.19 7.973s3.219 7.974 7.19 7.974 7.191-3.285 7.191-7.974-3.219-7.974-7.191-7.974zm0 14.538c-2.253 0-4.078-2.588-4.078-6.565s1.825-6.563 4.078-6.563 4.077 2.586 4.077 6.563-1.824 6.565-4.077 6.565zM84.055 2.413A8.883 8.883 0 0078.027.59H67.443l.21.644a5.795 5.795 0 011.627.342 1.517 1.517 0 01.65.816 7.233 7.233 0 01.18 2.14v14.993a7.24 7.24 0 01-.18 2.143 1.513 1.513 0 01-.65.817 6.002 6.002 0 01-1.626.358l-.21.721h8.735l-.21-.721a6.005 6.005 0 01-1.627-.358 1.516 1.516 0 01-.65-.817 7.25 7.25 0 01-.18-2.143v-5.792h3.518c2.164 0 5.122-.258 6.878-1.68a6.447 6.447 0 002.225-4.87 6.042 6.042 0 00-2.078-4.77zM81.11 11.25q-1.349 1.295-4.392 1.294h-3.206V3.195a1.373 1.373 0 01.47-1.189 4.53 4.53 0 012.241-.343 9.975 9.975 0 013.852.537 3.741 3.741 0 011.776 1.653 6.818 6.818 0 01.609 3.2c0 1.987-.452 3.333-1.35 4.196z"/><ellipse class="cls-1" cx="121.952" cy="21.991" rx="2.07" ry="2.077"/><path class="cls-1" d="M91.105 19.614a7.983 7.983 0 01-.179 2.148 1.512 1.512 0 01-.65.817 6.001 6.001 0 01-1.628.357l-.21.628h8.59l-.21-.628a6.002 6.002 0 01-1.627-.357 1.512 1.512 0 01-.65-.817 11.229 11.229 0 01-.18-2.148v-3.022a9.06 9.06 0 011.592-5.201 4.333 4.333 0 012.592-2.087 2.226 2.226 0 00-.466 1.372 2.002 2.002 0 103.998.115c.001-.029 0-.265-.007-.338-.114-1.764-1.56-2.441-3.032-2.441-3.627 0-5.086 4.244-5.086 4.246V8.69H88.4l.21.657s.475.017.918.055a1.604 1.604 0 011.114.49 2.203 2.203 0 01.463 1.553z"/></g></svg>