<svg xmlns="http://www.w3.org/2000/svg" width="32" height="32" viewBox="0 0 32 32">
  <g fill="none">
    <rect width="32" height="32" fill="#222" rx="16"/>
    <path fill="#FFF" d="M24.2832,12.5642 C24.2693595,11.8728892 24.1384036,11.1889293 23.8959,10.5414 C23.4629712,9.4220302 22.5780698,8.53712877 21.4587,8.1042 C20.8111772,7.86166041 20.1272167,7.73067056 19.4359,7.7168 C18.5471,7.6762 18.2633,7.6668 16.0001,7.6668 C13.7369,7.6668 13.4531,7.6768 12.5643,7.7168 C11.8729833,7.73067056 11.1890228,7.86166041 10.5415,8.1042 C9.4221302,8.53712877 8.53722877,9.4220302 8.1043,10.5414 C7.86176041,11.1889228 7.73077056,11.8728833 7.7169,12.5642 C7.6763,13.453 7.6669,13.7368 7.6669,16 C7.6669,18.2632 7.6769,18.547 7.7169,19.4358 C7.73077056,20.1271167 7.86176041,20.8110772 8.1043,21.4586 C8.53722877,22.5779698 9.4221302,23.4628712 10.5415,23.8958 C11.1890223,24.1383415 11.872983,24.2693314 12.5643,24.2832 C13.4531,24.3238 13.7369,24.3332 16.0001,24.3332 C18.2633,24.3332 18.5471,24.3232 19.4359,24.2832 C20.127217,24.2693314 20.8111777,24.1383415 21.4587,23.8958 C22.5780698,23.4628712 23.4629712,22.5779698 23.8959,21.4586 C24.1384036,20.8110707 24.2693595,20.1271108 24.2832,19.4358 C24.3238,18.547 24.3332,18.2632 24.3332,16 C24.3332,13.7368 24.3237,13.453 24.2832,12.5642 Z M22.7832,19.3674 C22.776947,19.8958297 22.6799005,20.4192519 22.4963,20.9148 C22.215917,21.641514 21.641514,22.215917 20.9148,22.4963 C20.4192508,22.6798966 19.8958293,22.7769431 19.3674,22.7832 C18.4888,22.8232 18.2253,22.8318 16,22.8318 C13.7747,22.8318 13.5112,22.8233 12.6326,22.7832 C12.1041707,22.7769431 11.5807492,22.6798966 11.0852,22.4963 C10.358486,22.215917 9.78408298,21.641514 9.5037,20.9148 C9.32010144,20.4192514 9.22305495,19.8958295 9.2168,19.3674 C9.1768,18.4887 9.1682,18.2251 9.1682,16 C9.1682,13.7749 9.1767,13.5113 9.2168,12.6326 C9.22305495,12.1041705 9.32010144,11.5807486 9.5037,11.0852 C9.78408298,10.358486 10.358486,9.78408298 11.0852,9.5037 C11.5807486,9.32010144 12.1041705,9.22305495 12.6326,9.2168 C13.5113,9.1768 13.7749,9.1682 16,9.1682 C18.2251,9.1682 18.4887,9.1767 19.3674,9.2168 C19.8958295,9.22305495 20.4192514,9.32010144 20.9148,9.5037 C21.641514,9.78408298 22.215917,10.358486 22.4963,11.0852 C22.6799005,11.5807481 22.776947,12.1041703 22.7832,12.6326 C22.8232,13.5113 22.8318,13.7749 22.8318,16 C22.8318,18.2251 22.8233,18.4886 22.7833,19.3674 L22.7832,19.3674 Z"/>
    <path fill="#FFF" d="M16,11.7207 C14.2691847,11.7207 12.7087967,12.763318 12.0464423,14.3623828 C11.384088,15.9614476 11.7502067,17.8020508 12.974078,19.025922 C14.1979492,20.2497933 16.0385524,20.615912 17.6376172,19.9535577 C19.236682,19.2912033 20.2793,17.7308153 20.2793,16 C20.2793,13.6366079 18.3633921,11.7207 16,11.7207 Z M16,18.7778 C14.4658634,18.7778 13.2222,17.5341366 13.2222,16 C13.2222,14.4658634 14.4658634,13.2222 16,13.2222 C17.5341366,13.2222 18.7778,14.4658634 18.7778,16 C18.7778,17.5341366 17.5341366,18.7778 16,18.7778 Z"/>
    <circle cx="20.448" cy="11.552" r="1" fill="#FFF"/>
  </g>
</svg>
