<svg xmlns="http://www.w3.org/2000/svg" width="32" height="33" viewBox="0 0 32 33">
  <path fill="#222" d="M33,16.9314 C32.9988726,8.42015121 26.3346212,1.3994856 17.8349698,0.955320944 C9.33531833,0.511156289 1.97560811,6.79897444 1.08736797,15.2637477 C0.199127829,23.728521 6.09329023,31.4071173 14.5,32.737 L14.5,21.5564 L10.4375,21.5564 L10.4375,16.9314 L14.5,16.9314 L14.5,13.4064 C14.5,9.3964 16.8887,7.1814 20.5434,7.1814 C21.7432899,7.19808638 22.9403514,7.30253181 24.125,7.4939 L24.125,11.4314 L22.1074,11.4314 C21.41106,11.3390241 20.7104808,11.5681618 20.2033117,12.0541681 C19.6961425,12.5401744 19.4373701,13.2303571 19.5,13.93 L19.5,16.9313 L23.9375,16.9313 L23.2281,21.5563 L19.5,21.5563 L19.5,32.737 C27.2746948,31.5054812 32.999446,24.8030274 33,16.9314 L33,16.9314 Z" transform="translate(-1)"/>
</svg>
