<svg xmlns="http://www.w3.org/2000/svg" width="32" height="32" viewBox="0 0 32 32">
  <g fill="none">
    <rect width="32" height="32" fill="#222" rx="16"/>
    <path fill="#FFF" d="M19.3149,2.3263 C19.0913946,1.48435611 18.4364011,0.825171313 17.5959,0.5963 C16.08,0.1873 10,0.1873 10,0.1873 C10,0.1873 3.92,0.1873 2.4041,0.5963 C1.56359889,0.825171313 0.908605441,1.48435611 0.6851,2.3263 C0.404873316,3.88043163 0.268894928,5.45713819 0.2789,7.0363 C0.268940484,8.6154644 0.40495225,10.1921698 0.6852,11.7463 C0.90883455,12.5881698 1.56377379,13.2473001 2.4042,13.4763 C3.92,13.8854 10,13.8854 10,13.8854 C10,13.8854 16.08,13.8854 17.5959,13.4766 C18.4363262,13.2476001 19.0912655,12.5884698 19.3149,11.7466 C19.5951478,10.1924698 19.7311595,8.6157644 19.7212,7.0366 C19.7311906,5.45733495 19.5951786,3.88052708 19.3149,2.3263 L19.3149,2.3263 Z M8.0116,9.9272 L8.0116,4.1455 L13.0931,7.0365 L8.0116,9.9272 Z" transform="translate(6 9)"/>
  </g>
</svg>
