<svg xmlns="http://www.w3.org/2000/svg" width="16" height="23" viewBox="0 0 16 23">
  <path fill="#222" d="M12.1813486,41.0001264 C12.2842996,40.9974876 12.3860633,41.0362097 12.4600733,41.1133536 L15.8875305,44.5408108 C15.9793552,44.6326355 16.0186212,44.7669163 15.9916378,44.893271 L15.9902982,56.6171888 L15.9902982,63.4719288 C15.9925201,63.5768741 15.9512259,63.6717084 15.8831616,63.7403063 L15.8273557,63.7863537 C15.7871543,63.8137429 15.7413072,63.833463 15.6919074,63.8435665 L15.6154049,63.8512659 L0.379337095,63.8512659 C0.169620845,63.8512659 2.1813662e-12,63.6818194 2.1813662e-12,63.4719288 L2.1813662e-12,41.381121 C2.1813662e-12,41.1714048 0.169620845,41.0017839 0.379337095,41.0017839 L12.1813486,41.0001264 Z M15.2360678,56.9965259 L0.763206742,56.9965259 L0.763206742,63.0882335 L15.2360678,63.0882335 L15.2360678,56.9965259 Z M3.80679425,57.7595583 C4.64583357,57.7595583 5.32869596,58.4424 5.32869596,59.2814392 C5.33303339,60.1204785 4.65019175,60.8033202 3.80679425,60.8033202 L3.043,60.803 L3.04358755,61.9456897 C3.04812005,62.1554059 2.87414101,62.3295593 2.66425044,62.3295593 C2.45453419,62.3295593 2.28491334,62.1599384 2.28491334,61.9502222 L2.28491334,58.1388954 C2.28491334,57.9291792 2.45453419,57.7595583 2.66425044,57.7595583 L3.80679425,57.7595583 Z M13.3303172,57.7595583 C13.5402078,57.7595583 13.7096544,57.9291792 13.7096544,58.1388954 C13.7096544,58.348786 13.5402078,58.5182325 13.3303172,58.5182325 L11.424,58.518 L11.424,59.665 L13.3303172,59.6653089 C13.5402078,59.6653089 13.7096544,59.8347554 13.7096544,60.044646 C13.7096544,60.2543622 13.5402078,60.4239831 13.3303172,60.4239831 L11.424,60.423 L11.424741,61.9456897 C11.424741,62.1554059 11.2551202,62.3295593 11.0454039,62.3295593 C10.8356877,62.3295593 10.6660668,62.1599384 10.6660668,61.9502222 L10.6660668,58.1388954 C10.6660668,57.9291792 10.8356877,57.7595583 11.0454039,57.7595583 L13.3303172,57.7595583 Z M7.23425146,57.7595583 C8.49272318,57.7595583 9.51916476,58.7859999 9.51916476,60.044646 C9.51916476,61.3031177 8.49725573,62.3295593 7.23425146,62.3295593 L6.85491435,62.3295593 C6.6451981,62.3295593 6.47557725,62.1599384 6.47557725,61.9502222 L6.47557725,58.1388954 C6.47557725,57.9291792 6.6451981,57.7595583 6.85491435,57.7595583 L7.23425146,57.7595583 Z M7.23425146,58.5182325 L7.23425146,61.5663526 C8.07329073,61.5663526 8.75595805,60.8835109 8.75595805,60.044646 C8.75595805,59.2056067 8.07764891,58.5182325 7.23425146,58.5182325 Z M3.8113268,58.5182325 L3.04812005,58.5182325 L3.04812005,60.044646 L3.8113268,60.044646 C4.23075925,60.044646 4.57435919,59.7008717 4.57435919,59.2814392 C4.57435919,58.8620068 4.23075925,58.5182325 3.8113268,58.5182325 Z M11.808,41.764 L0.763206742,41.7649906 L0.763,56.237 L15.236,56.237 L15.236,45.192 L12.1879478,45.1924478 C11.9782315,45.1924478 11.8086107,45.0228269 11.8086107,44.8131107 L11.808,41.764 Z M7.85450944,44.8131107 C8.00634889,44.8131107 8.13570003,44.9558851 8.22948836,45.0585641 C8.33652555,45.1790246 8.43031389,45.321799 8.46587674,45.4825291 C8.55077435,45.8841801 8.47040924,46.3393498 8.4034674,46.7364683 C8.34541628,47.0757101 8.26958371,47.4149518 8.18921865,47.749661 C8.70243943,48.793884 9.42537647,49.8560628 10.1216413,50.5835323 C10.6214389,50.4942766 11.0499364,50.4496487 11.3980689,50.4496487 C11.9914804,50.4496487 12.3530361,50.5878905 12.500343,50.8690811 C12.625336,51.1056438 12.5761755,51.3777694 12.3575686,51.6812739 C12.1433199,51.9713553 11.8532385,52.1275529 11.5139968,52.1275529 C11.0542946,52.1275529 10.5144017,51.8374716 9.91628331,51.2707322 C8.83632312,51.4938716 7.58238389,51.8909901 6.56483304,52.3283784 C6.24790523,52.9934386 5.94004251,53.5289734 5.65885188,53.9215594 C5.27062409,54.4616266 4.93138234,54.7116126 4.60120568,54.7116126 C4.47168017,54.7116126 4.34232899,54.6713429 4.23529179,54.5909778 C3.83799893,54.3008965 3.78448031,53.9752523 3.8113268,53.7521129 C3.88262682,53.1405712 4.64583357,52.5025318 6.08281688,51.8508948 C6.65408883,50.614737 7.19398174,49.0928561 7.51980023,47.8209611 C7.14046312,47.0042357 6.77454924,45.951122 7.04231661,45.3306896 C7.13610494,45.1166153 7.25203286,44.9469944 7.47081415,44.87552 C7.5555374,44.8488479 7.77414437,44.8131107 7.85450944,44.8131107 Z M5.60969149,52.7926131 C4.79749866,53.2388921 4.46732199,53.6091641 4.44500805,53.8190547 C4.44500805,53.8546175 4.43158478,53.9438733 4.61009636,54.077757 C4.66814752,54.0599756 4.99832418,53.9126687 5.60969149,52.7926131 Z M7.95265595,48.6600003 C7.68488858,49.5882954 7.32350725,50.5878905 6.9396376,51.4938716 C7.73404898,51.1903671 8.59540224,50.9225997 9.40306253,50.73973 C8.88984174,50.1505023 8.37662095,49.414142 7.95265595,48.6600003 Z M11.4739014,51.087688 C11.2819666,51.087688 11.0410457,51.0967531 10.7865273,51.1279578 C11.0989225,51.359988 11.1749294,51.4804484 11.3757549,51.4804484 C11.4650107,51.4804484 11.7193549,51.4760902 11.8352828,51.3153601 C11.8933339,51.234995 11.9156478,51.1860089 11.9201804,51.163695 C11.8755525,51.1368485 11.8129688,51.087688 11.4739014,51.087688 Z M7.7251583,45.4868873 C7.68488858,45.5003105 7.22082819,46.147415 7.76089547,46.6918404 C8.12227681,45.8976034 7.7429397,45.4825291 7.7251583,45.4868873 Z M12.5672849,42.3005254 L12.5672849,44.4292411 L14.6960005,44.4292411 L12.5672849,42.3005254 Z" transform="translate(0 -41)"/>
</svg>
