<svg xmlns="http://www.w3.org/2000/svg" width="33" height="32" viewBox="0 0 33 32">
  <g fill="none">
    <circle cx="16.085" cy="16" r="16" fill="#222"/>
    <path fill="#FFF" d="M24.1211,12.9664 C24.1287,13.1318 24.1323667,13.2980333 24.1321,13.4651 C24.133713,17.475555 21.9467131,21.1672546 18.4286585,23.0926233 C14.910604,25.017992 10.6222769,24.8701237 7.2452,22.707 C7.55055681,22.7427954 7.85775237,22.7606261 8.1652,22.7604 C9.90188548,22.7630052 11.5889854,22.1814665 12.9552,21.1093 C11.3051743,21.0777982 9.85754751,20.0011796 9.3526,18.43 C9.93062027,18.5413906 10.5264844,18.518778 11.0944,18.3639 C9.2947328,18.0002314 8.00054697,16.4188437 8,14.5828 C8,14.5659 8,14.5497 8.0009,14.5336 C8.53615805,14.8319198 9.13520852,14.9973892 9.7477,15.0161 C8.05268353,13.8841423 7.52988259,11.6293854 8.5538,9.867 C10.5124487,12.276879 13.4022322,13.741763 16.5038,13.897 C16.1079874,12.1966338 16.9027454,10.442275 18.4420232,9.61854167 C19.9813011,8.79480836 21.8818484,9.10679421 23.077,10.3794 C23.940687,10.2090611 24.7689313,9.89244111 25.526,9.4432 C25.2381199,10.3365691 24.6353752,11.0948688 23.83,11.5769 C24.5945682,11.486367 25.3412376,11.2816911 26.0451,10.9697 C25.5273266,11.7441593 24.8758318,12.4202714 24.1211,12.9664 L24.1211,12.9664 Z"/>
  </g>
</svg>
