<svg xmlns="http://www.w3.org/2000/svg" width="70" height="70" viewBox="0 0 70 70">
  <path fill="#345CD6" d="M294.092632,87 C294.333001,87 294.563526,87.0907304 294.733494,87.2522315 C294.875133,87.3868158 294.96505,87.5613594 294.991087,87.7479763 L294.998947,87.8611722 L294.998947,89.6325265 C294.995727,90.0264761 294.712752,90.3630769 294.320181,90.459493 L294.210526,90.4796959 L294.210526,91.179836 L297.025263,91.179836 C297.31336,91.1803207 297.585164,91.3068706 297.762105,91.5229046 C297.938616,91.7365593 297.998698,92.0168186 297.924211,92.2790558 C297.865263,92.3630726 295.256842,100.715743 291.970526,102.55011 C291.13537,104.272235 289.852202,105.763772 288.242105,106.883977 C288.273411,106.974403 288.29489,107.067508 288.306287,107.161835 L288.315789,107.304061 L288.315789,108.018204 C288.315789,108.746066 287.731338,109.344221 286.984031,109.412074 L286.842105,109.418484 L286.842105,113.619324 L289.163158,113.619324 C289.871724,113.619324 290.454022,114.133013 290.520076,114.789841 L290.526316,114.914583 L290.526316,116.419884 L292.081053,116.419884 C292.387426,116.410673 292.663351,116.582026 292.781313,116.843071 L292.817895,116.944989 L293.621053,119.906581 L299.368421,119.906581 L299.368421,128.308262 L296.421053,128.308262 L296.421053,131.808962 L320,131.808962 L320,138.810362 L318.526316,138.810362 L318.526316,157 L251.473684,157 L251.473684,145.09762 L250,145.09762 L250,138.096219 L273.578947,138.096219 L273.578947,128.294259 L271.368421,128.294259 L271.368421,119.892579 L277.071579,119.892579 L277.690526,116.965993 C277.754504,116.667866 278.012032,116.447156 278.322217,116.410964 L278.427368,116.405881 L280.203158,116.405881 L280.203158,114.90058 C280.203158,114.227308 280.743775,113.674014 281.435035,113.61125 L281.566316,113.605321 L283.150526,113.605321 L283.150526,109.236447 C282.730169,109.005902 282.458996,108.595358 282.418749,108.141516 L282.413684,108.004201 L282.413684,107.325065 C282.415854,107.206818 282.433174,107.089262 282.465263,106.974995 C280.808983,105.85705 279.490352,104.345785 278.641053,102.592118 C275.369474,100.820764 272.68,92.3840768 272.68,92.30006 C272.613348,92.0376393 272.672731,91.7606449 272.842105,91.5439088 C272.993769,91.3587368 273.215128,91.2393083 273.456704,91.2086596 L273.578947,91.2008402 L276.452632,91.2008402 L276.452632,90.5007001 L275.958947,90.5007001 C275.496906,90.5007001 275.115619,90.1721757 275.059693,89.7475515 L275.052632,89.6395279 L275.052632,87.8611722 C275.052632,87.4221455 275.398378,87.0598498 275.845261,87.0067098 L275.958947,87 L294.092632,87 Z M273.578947,145.111622 L252.947368,145.111622 L252.947368,155.613723 L273.578947,155.613723 L273.578947,145.111622 Z M294.947368,128.308262 L275.052632,128.308262 L275.052632,155.613723 L294.947368,155.613723 L294.947368,128.308262 Z M317.052632,138.810362 L296.421053,138.810362 L296.421053,155.613723 L317.052632,155.613723 L317.052632,138.810362 Z M273.578947,139.510502 L251.473684,139.510502 L251.473684,143.711342 L273.578947,143.711342 L273.578947,139.510502 Z M318.526316,133.209242 L296.421053,133.209242 L296.421053,137.410082 L318.526316,137.410082 L318.526316,133.209242 Z M297.894737,121.306861 L272.842105,121.306861 L272.842105,126.907982 L297.894737,126.907982 L297.894737,121.306861 Z M289.052632,115.005601 L281.684211,115.005601 L281.684211,116.405881 L282.421053,116.405881 L282.421053,117.806161 L279.038947,117.806161 L278.596842,119.906581 L292.095789,119.906581 L291.528421,117.806161 L284.631579,117.806161 L284.631579,116.405881 L289.052632,116.405881 L289.052632,115.005601 Z M298.58,111.462893 L299.125263,111.812963 C299.992353,112.373419 300.623744,113.206395 300.908421,114.165433 C301.025481,114.135933 301.144794,114.115648 301.26515,114.104737 L301.446316,114.095419 L301.673252,114.101466 C303.218977,114.178811 303.947705,114.976124 304.165812,115.508907 L304.194737,115.586717 L304.305263,115.936787 L304.069474,116.223845 C303.439177,116.998103 302.523349,117.511879 301.511871,117.665201 L301.276842,117.694139 L301.232632,117.694139 C300.346303,117.662263 299.518211,117.266285 298.963158,116.608922 C298.58,116.377876 297.312632,115.614723 297.157895,114.508502 C297.13832,113.634219 297.439449,112.7831 298.005604,112.099353 L298.152632,111.931986 L298.58,111.462893 Z M272.046316,111.364873 L272.473684,111.840968 C273.141839,112.551754 273.497839,113.478858 273.468421,114.431486 C273.313684,115.558712 272.038947,116.328866 271.663158,116.531906 C271.152559,117.140763 270.406706,117.525468 269.597269,117.603934 L269.393684,117.617123 L269.342105,117.617123 C268.318613,117.519976 267.375401,117.057116 266.700397,116.327015 L266.549474,116.153831 L266.313684,115.859772 L266.431579,115.509702 C266.600732,114.987337 267.322698,114.106245 268.952145,114.030616 L269.18,114.025405 L269.361213,114.034335 C269.481596,114.045119 269.600916,114.065535 269.717895,114.095419 C269.975357,113.200809 270.536442,112.414486 271.310517,111.85659 L271.508421,111.721944 L272.046316,111.364873 Z M301.626473,115.474331 L301.461053,115.474695 C301.123033,115.525399 300.809293,115.668737 300.557438,115.88543 L300.436842,115.9998 L300.583503,116.090581 C300.785737,116.200084 301.013179,116.262915 301.247368,116.272855 C301.72157,116.223262 302.166162,116.029231 302.514737,115.719744 C302.297038,115.601229 302.058534,115.523926 301.812348,115.490824 L301.626473,115.474331 Z M269.18,115.404681 L268.993482,115.403205 C268.683622,115.415266 268.38059,115.499521 268.111579,115.64973 C268.411058,115.923702 268.788834,116.10546 269.195613,116.173637 L269.371579,116.195839 L269.371579,116.216843 C269.616063,116.19992 269.849642,116.118328 270.046499,115.982616 L270.16,115.894779 L270.044126,115.786996 C269.842627,115.617012 269.600648,115.495998 269.339106,115.434415 L269.18,115.404681 L268.993482,115.403205 Z M298.866,113.429 L298.866,113.43 L298.79858,113.553991 C298.683168,113.78832 298.625695,114.045413 298.631579,114.305461 C298.732125,114.583932 298.91173,114.829452 299.149183,115.01561 L299.272632,115.103621 L299.331579,115.04761 C299.441095,114.895499 299.49542,114.713603 299.486316,114.529506 C299.421807,114.15488 299.242851,113.807838 298.973522,113.530669 L298.866,113.429 Z M271.766316,113.346269 C271.472846,113.603492 271.265478,113.935495 271.167739,114.300944 L271.132632,114.459492 L271.132632,114.480496 C271.134853,114.612496 271.165504,114.742182 271.222149,114.861724 L271.287368,114.977596 L271.346316,115.033607 C271.652306,114.850588 271.883594,114.574026 272.002105,114.24945 C272.019205,113.932861 271.937152,113.61856 271.766316,113.346269 Z M285.368421,109.404481 L284.631579,109.404481 L284.631579,113.605321 L285.368421,113.605321 L285.368421,109.404481 Z M298.874737,113.416283 L298.852632,113.416283 L298.866,113.429 L298.874737,113.416283 Z M270.462105,107.738148 L270.668421,108.130226 C271.069047,108.95154 271.038476,109.904298 270.585938,110.700896 C270.133399,111.497494 269.31192,112.04459 268.369474,112.177035 L268.369474,112.177035 L267.964211,112.240048 L267.750526,112.275055 C267.470085,112.315827 267.18686,112.336888 266.903158,112.338068 C266.115599,112.361978 265.345725,112.113159 264.736842,111.637928 C263.979072,110.965195 263.535985,110.032402 263.506316,109.047409 L263.506316,109.047409 L263.506316,108.795359 L263.683158,108.59932 C263.778947,108.487297 264.7,107.528106 266.866316,108.697339 C266.998171,108.774102 267.121595,108.863233 267.234737,108.963393 L267.234737,108.963393 L267.386512,108.80215 C268.064967,108.12554 269.007784,107.738788 269.997895,107.738148 L269.997895,107.738148 L270.462105,107.738148 Z M300.657895,107.738119 C301.654141,107.734238 302.603424,108.125462 303.280267,108.811832 L303.421053,108.963393 L303.538893,108.865433 C303.620056,108.803127 303.706296,108.746914 303.796842,108.697339 C305.883825,107.56708 306.820949,108.425716 306.967631,108.585404 L306.98,108.59932 L307.149474,108.795359 L307.149474,109.047409 C307.123638,110.026876 306.688878,110.956361 305.941053,111.630926 C305.334763,112.105681 304.567356,112.354549 303.782105,112.331066 C303.591111,112.33097 303.400355,112.320527 303.210765,112.299815 L302.927368,112.261052 L302.713684,112.261052 L302.513877,112.238564 L302.315789,112.205041 L302.315789,112.177035 L302.286316,112.177035 C301.342007,112.048239 300.518079,111.50122 300.066054,110.702967 C299.646316,109.961732 299.593515,109.085575 299.91412,108.307848 L299.994737,108.130226 L300.201053,107.738119 L300.657895,107.738119 Z M305.602105,109.565513 C305.218668,109.623529 304.852232,109.757079 304.526316,109.957592 C304.270023,109.891492 303.997541,109.984254 303.843736,110.189963 C303.689931,110.395672 303.687433,110.670688 303.837479,110.878888 C303.987525,111.087089 304.258282,111.184305 304.515737,111.122418 C304.773192,111.060532 304.962726,110.852672 304.990526,110.60172 C305.305457,110.327121 305.519748,109.964045 305.602105,109.565513 Z M265.083158,109.537508 C265.166968,109.93553 265.381021,110.298203 265.694737,110.573715 C266.002046,110.802267 266.380289,110.927811 266.770526,110.930786 C266.697721,110.536861 266.481187,110.1799 266.158947,109.922585 L266.158947,109.922585 L266.122105,109.922585 C265.805662,109.730832 265.452666,109.599997 265.083158,109.537508 Z M301.188421,109.229446 C301.170366,109.507294 301.22621,109.784066 301.349536,110.034638 L301.431579,110.181636 L301.431579,110.202641 C301.646239,110.492522 301.957913,110.704763 302.315789,110.804761 C302.430604,110.461208 302.387807,110.087592 302.197895,109.775555 C301.939618,109.486205 301.582112,109.2928 301.188421,109.229446 Z M269.489474,109.20144 C269.096656,109.261613 268.740387,109.455766 268.487368,109.74755 L268.487368,109.74755 L268.421053,109.74755 C268.264371,110.053337 268.240551,110.405412 268.354737,110.727746 C268.714451,110.639376 269.030034,110.433684 269.246316,110.146629 C269.429372,109.86347 269.514411,109.53291 269.489474,109.20144 Z M286.842105,107.304061 L283.894737,107.304061 L283.894737,108.004201 L286.842105,108.004201 L286.842105,107.304061 Z M306.10521,101.296365 L306.117895,101.296859 L306.478947,101.338868 L306.663158,101.639928 C307.24796,102.580771 307.38457,103.713386 307.038947,104.755551 C306.619605,105.603903 305.821825,106.223835 304.872077,106.449611 L304.666316,106.491898 L304.622105,106.491898 C304.104136,106.735662 303.534837,106.864914 302.956842,106.869974 C302.525734,106.873566 302.099575,106.782516 301.711579,106.603921 C300.834035,106.149663 300.219559,105.348499 300.029019,104.423478 L299.994737,104.223445 L299.943158,103.768354 L300.370526,103.544309 C301.191241,103.104588 302.161818,103.003094 303.05854,103.256508 L303.281053,103.327265 L303.325263,103.327265 C303.335578,103.271812 303.352896,103.217744 303.376842,103.166233 C304.317053,101.189971 305.93203,101.287656 306.10521,101.296365 Z M267.249474,103.089218 C267.288158,103.125975 267.297829,103.166671 267.300247,103.208351 L267.301053,103.25025 L267.345263,103.25025 C268.229625,102.943092 269.203638,102.989205 270.047628,103.371679 L270.255789,103.474295 L270.675789,103.69834 L270.631579,104.153431 C270.480255,105.158338 269.830765,106.033269 268.885263,106.505901 C268.50191,106.690616 268.077157,106.784308 267.647368,106.778956 C267.150278,106.771892 266.659777,106.676063 266.20123,106.497203 L265.974737,106.40088 L265.766296,106.358024 C264.804403,106.128801 263.999768,105.49452 263.587368,104.629526 C263.283262,103.673967 263.376451,102.64705 263.841805,101.758428 L263.955789,101.555911 L264.14,101.254851 L264.508421,101.212843 C264.574737,101.205841 266.276842,101.037808 267.249474,103.089218 Z M293.473684,88.4002801 L276.526316,88.4002801 L276.526316,89.1004201 L286.842105,89.1004201 L286.842105,90.5007001 L277.845263,90.5007001 C277.734737,93.2312462 277.786316,102.529106 283.371579,105.987798 C283.496083,105.93925 283.627173,105.908384 283.760637,105.895988 L283.894737,105.889778 L286.790526,105.889778 C286.938399,105.891383 287.085093,105.915008 287.225263,105.959792 C292.685263,102.540091 292.84345,93.5484571 292.742374,90.6476853 L292.736842,90.5007001 L289.052632,90.5007001 L289.052632,89.1004201 L293.473684,89.1004201 L293.473684,88.4002801 Z M301.645263,104.552511 C301.769359,104.836689 301.978173,105.078825 302.244358,105.250079 L302.382105,105.329666 L302.411579,105.30166 C302.551683,105.573473 302.89569,105.687809 303.183553,105.558238 C303.471417,105.428666 303.59622,105.103313 303.46362,104.828122 C303.331021,104.552931 302.990268,104.430113 302.698947,104.552511 C302.357519,104.441021 301.986692,104.441021 301.645263,104.552511 Z M268.119352,104.489124 L267.971579,104.531506 L267.971579,104.503501 C267.626454,104.696827 267.379041,105.015336 267.286316,105.385677 C267.620247,105.464588 267.972178,105.437541 268.288421,105.308662 C268.620023,105.136916 268.879975,104.862742 269.025263,104.531506 C268.733206,104.432613 268.418018,104.418486 268.119352,104.489124 Z M305.594737,102.732146 C305.188862,102.94587 304.877584,103.291353 304.717895,103.705341 C304.606252,104.098735 304.650838,104.517408 304.843158,104.881576 C305.201317,104.752557 305.497458,104.503539 305.675789,104.181436 C305.830863,103.704535 305.802129,103.190746 305.594737,102.732146 Z M265.047,102.731 L264.979494,102.89028 C264.826272,103.297723 264.812511,103.742617 264.943158,104.160432 C265.118686,104.484615 265.415798,104.734449 265.775789,104.860572 C265.969329,104.49903 266.011457,104.081221 265.893684,103.691338 C265.758141,103.328679 265.504385,103.018284 265.171571,102.803978 L265.047,102.731 Z M265.053684,102.718144 L265.024211,102.718144 L265.047,102.731 L265.053684,102.718144 Z M305.550526,93.7983597 L305.992632,94.1274255 C306.813691,94.7544958 307.323483,95.6776443 307.4,96.6759352 C307.339962,97.6354391 306.832579,98.5154755 306.023258,99.080313 L305.845263,99.1964393 L305.513684,99.4344869 L305.218947,99.7705541 C304.645024,100.396705 303.850984,100.798994 302.989358,100.905392 L302.772632,100.925785 L302.573684,100.925785 C301.571507,100.787297 300.668319,100.28491 300.050986,99.5292891 L299.913684,99.3504701 L299.604211,98.9023805 L299.98,98.5033007 C300.681258,97.7555719 301.681799,97.3234336 302.735789,97.3130626 C303.09492,97.3352716 303.445706,97.4257426 303.767368,97.5791158 C303.671479,97.313324 303.62413,97.0339086 303.627368,96.7529506 C303.701434,95.7846756 304.172256,94.8856749 304.933518,94.2463718 L305.101053,94.1134227 L305.550526,93.7983597 Z M265.112632,93.7563513 L265.569474,94.0784157 C266.429319,94.7192746 266.964481,95.6752651 267.043158,96.7109422 C267.047583,96.9919831 267.000201,97.2715909 266.903158,97.5371074 C267.227434,97.3837213 267.580627,97.2932757 267.942105,97.2710542 C268.911722,97.2944928 269.833737,97.6623043 270.528927,98.2970811 L270.697895,98.4612923 L271.066316,98.8603721 L270.756842,99.3084617 C270.180641,100.114729 269.292446,100.667593 268.290995,100.850327 L268.074737,100.883777 L267.875789,100.883777 C267.002329,100.827654 266.184356,100.466643 265.57687,99.8743841 L265.429474,99.7215443 L265.134737,99.3924785 L264.803158,99.1474295 C263.902189,98.5907572 263.33328,97.6603504 263.270526,96.6409282 C263.334937,95.7136523 263.777618,94.8499528 264.499121,94.2308612 L264.670526,94.0924185 L265.112632,93.7563513 Z M302.579,98.714 L302.578,98.714 L302.443813,98.7176031 C302.112034,98.7406288 301.792138,98.8500952 301.52,99.0354071 C301.829388,99.3125028 302.224922,99.4869085 302.647368,99.5325065 C302.993094,99.5443588 303.332187,99.4402623 303.605263,99.2384477 C303.375094,98.983839 303.064686,98.8086515 302.722259,98.7374296 L302.579,98.714 Z M268.030526,98.6643329 C267.630917,98.7081823 267.264282,98.8961531 267.006316,99.1894379 C267.280873,99.3826644 267.61526,99.4836488 267.956842,99.4764953 C268.380158,99.4314101 268.777485,99.2598028 269.091579,98.9863973 C268.783162,98.7741392 268.41133,98.661276 268.030526,98.6643329 Z M276.445263,92.6011202 L274.315789,92.6011202 C275.08222,94.8641834 276.092119,97.046149 277.329474,99.1124225 C276.783587,96.9794972 276.487056,94.79585 276.445263,92.6011202 Z M296.347368,92.6011202 L294.210526,92.6011202 C294.161961,94.5737884 293.904868,96.5362657 293.443467,98.4590151 L293.282105,99.0984197 L293.296842,99.0774155 C294.549488,97.026077 295.571938,94.8554062 296.347368,92.6011202 Z M302.610526,98.7133427 L302.573684,98.7133427 L302.579,98.714 L302.610526,98.7133427 Z M305.524,95.692 L305.417429,95.826959 C305.209501,96.1119954 305.08675,96.4466047 305.064211,96.794959 C305.073146,97.1199252 305.200794,97.4318131 305.425263,97.6771354 C305.71632,97.4141614 305.892562,97.0567391 305.918947,96.6759352 C305.900584,96.3670525 305.79578,96.0694112 305.616716,95.8132321 L305.524,95.692 Z M265.1,95.661 L265.017144,95.7618183 C264.824194,96.0141739 264.708647,96.313716 264.685263,96.6269254 C264.711649,97.0077293 264.887891,97.3651516 265.178947,97.6281256 C265.397476,97.3767132 265.52418,97.0646746 265.54,96.7389478 C265.51665,96.3936455 265.395902,96.0618071 265.191983,95.7776655 L265.1,95.661 Z M305.528421,95.6887377 L305.521053,95.6887377 L305.524,95.692 L305.528421,95.6887377 Z M265.12,95.6397279 L265.083158,95.6397279 L265.088,95.645 L265.1,95.661 L265.12,95.6397279 Z" transform="translate(-250 -87)"/>
</svg>
