<svg xmlns="http://www.w3.org/2000/svg" width="70" height="70" viewBox="0 0 70 70">
  <path fill="#445CD1" d="M287.516754,99.6412936 C287.814529,99.4402257 288.104973,99.2409062 288.406854,99.0390612 L288.406854,99.0390612 L290.028684,97.9549457 L289.855064,97.6985112 L295.481319,97.6985112 L292.076648,93.1158138 L286.092007,87.5358389 L289.368026,84.6436662 L293.237543,86.8028637 L293.317901,86.6085952 C293.427226,86.3476501 293.592188,86.1133562 293.801419,85.921856 L293.802397,85.9208846 L296.250002,83.6797058 C292.192896,81.4469046 287.647764,80.2338799 283.010725,80.1463498 L283.010725,80.1463498 L283.010725,95.6413046 C282.361015,96.0866329 281.709285,96.5381453 281.055535,96.9958419 L281.055535,96.9958419 L281.055535,80.1675251 C275.108552,80.4536335 269.401197,82.5837143 264.735269,86.2585233 L264.735269,86.2585233 L264.735269,97.6985112 L280.053695,97.6985112 C279.153721,98.3368776 278.25404,98.9844393 277.354653,99.6411965 L277.354653,99.6411965 L264.735464,99.6411965 L264.735464,109.626987 C264.072785,110.200209 263.421055,110.774013 262.780274,111.348401 L262.780274,111.348401 L262.780274,99.6416821 L255.272344,99.6416821 C253.325664,105.45342 253.325664,111.735286 255.272344,117.547024 L255.272344,117.547024 L256.358061,117.547024 C255.563406,118.381925 254.809778,119.208861 254.097177,120.027833 C250.367945,110.88188 251.336208,100.506703 256.694394,92.19802 C262.05258,83.8893371 271.134645,78.6799511 281.055632,78.2246455 L281.055632,78.2246455 L281.055632,78.1895801 L283.010725,78.1895801 L283.010725,78.2034703 C288.201686,78.2905161 293.284045,79.6948691 297.774952,82.2831093 L297.774952,82.2831093 L298.346552,81.7597499 L291.398588,75.2015359 L296.091827,71.0572054 L303.543839,77.0013366 L311.721813,69.5132563 C312.076789,69.1804407 312.547358,68.9966114 313.035407,69.0000473 L313.035407,69.0000473 L317.27817,69.0680899 C317.724288,69.0695581 318.148891,69.258777 318.44669,69.5888267 L318.44669,69.5888267 L318.607113,69.7681366 C318.903958,70.107903 319.042502,70.5564738 318.98857,71.0031987 L318.98857,71.0031987 L318.5117,75.1380101 C318.450152,75.610905 318.212564,76.0437419 317.845762,76.351217 L317.845762,76.351217 L309.397092,83.5451748 L314.462305,91.5967311 L310.068,95.476 L310.282104,95.9288271 C314.466978,105.010486 313.894641,115.558657 308.75135,124.140628 L308.490377,124.568073 C303.018252,133.3674 293.419324,138.799116 283.010823,138.98611 L283.010823,138.98611 L283.010823,139 L281.055632,139 L281.055632,138.965032 C275.453649,138.716557 270.029687,136.934968 265.382437,133.816916 C265.055822,133.598266 264.732629,133.375343 264.415204,133.144747 C261.554302,131.065227 259.076707,128.509986 257.091844,125.591878 C257.502238,125.081437 257.935704,124.557592 258.406709,124.01296 C259.650505,125.924521 261.118596,127.68239 262.780079,129.249566 L262.780079,129.249566 L262.780079,119.489709 L262.655826,119.489709 C263.315377,118.835672 264.008525,118.166611 264.735269,117.482527 L264.735269,117.482527 L264.735269,117.547024 L281.055632,117.547024 L281.055632,104.15794 C281.695957,103.693767 282.347687,103.226681 283.010823,102.756681 L283.010823,102.756681 L283.010823,117.547024 L299.330991,117.547024 L299.330991,99.6413907 L296.983296,99.6413907 L296.947809,99.672668 L296.924542,99.6412936 Z M286.198644,95.7479675 L287.285714,97.3597744 C287.150829,97.4504629 287.02091,97.5403745 286.886414,97.6309658 C285.922834,98.2813202 284.976817,98.9286322 284.048363,99.5729019 C283.697952,99.8161294 283.342672,100.060134 282.997716,100.30239 C282.339163,100.765089 281.689894,101.226234 281.04991,101.685825 C275.377403,105.714976 269.948416,110.07447 264.791278,114.741559 C264.116947,115.358383 263.467678,115.965626 262.843471,116.563289 C262.524421,116.869241 262.215012,117.170241 261.908524,117.471241 C261.235947,118.130723 260.590444,118.779135 259.979027,119.413178 C259.059728,120.368157 258.209186,121.291904 257.427401,122.184417 C256.953013,122.725732 256.499271,123.257725 256.0765,123.774378 C252.680402,127.925363 250.950653,131.254133 250.950653,133.413566 C250.891731,134.290894 251.313658,135.131313 252.053403,135.61009 C252.296909,135.768825 252.557456,135.899911 252.830189,136.000904 C252.92641,136.037801 253.042012,136.06227 253.145051,136.094797 C253.358851,136.16575 253.57635,136.225098 253.796593,136.272581 C253.934887,136.300448 254.090127,136.317343 254.237771,136.339287 C254.465956,136.373271 254.695408,136.405798 254.945214,136.425217 C255.116718,136.438423 255.300981,136.442501 255.482516,136.448812 C255.648275,136.454638 255.799619,136.470367 255.973558,136.470367 C256.0541,136.470367 256.149445,136.459687 256.23174,136.458424 C256.528196,136.454249 256.843351,136.435898 257.161818,136.415411 C257.391854,136.401137 257.616338,136.389874 257.857574,136.366862 C258.206426,136.333461 258.576802,136.283165 258.948346,136.232383 C259.189192,136.199467 259.420494,136.173445 259.670592,136.133247 C260.096772,136.064697 260.547787,135.975756 261.000067,135.886039 C261.223091,135.84186 261.433552,135.807682 261.662322,135.758357 C262.355059,135.609022 263.072923,135.439005 263.819907,135.242675 L263.819907,135.242675 L264.316597,137.120139 C261.609345,137.897198 258.814959,138.332357 255.998977,138.415411 C254.240534,138.518659 252.490483,138.103823 250.96682,137.222576 C249.691798,136.380267 248.947891,134.937501 249.002846,133.413566 C249.002846,130.520955 251.169489,126.537656 255.072114,121.89303 C255.516603,121.364047 255.987096,120.825353 256.476092,120.279864 C256.7333,119.992845 256.994988,119.704468 257.264272,119.413178 C257.852055,118.775769 258.469088,118.128457 259.11537,117.471241 C260.27386,116.294363 261.516528,115.092078 262.843374,113.864386 C263.475145,113.279864 264.122304,112.690972 264.79118,112.096254 C269.854081,107.642123 275.152799,103.461741 280.664536,99.5730961 C281.574032,98.9263019 282.497909,98.2789899 283.436167,97.63116 C284.345403,97.0034292 285.263015,96.3755041 286.198644,95.7479675 L286.198644,95.7479675 Z M299.330991,119.489709 L283.010725,119.489709 L283.010725,137.043425 C288.88831,136.938145 294.589121,135.028369 299.330991,131.576125 L299.330991,131.576125 L299.330991,119.489709 Z M281.055632,119.489709 L264.735367,119.489709 L264.735367,130.93096 C269.401295,134.605769 275.108649,136.735849 281.055632,137.021958 L281.055632,137.021958 L281.055632,119.489709 Z M308.918266,119.489709 L301.286181,119.489709 L301.286181,130.018383 C304.608812,127.136491 307.220103,123.534141 308.918266,119.489709 L308.918266,119.489709 Z M309.643837,99.6411965 L301.286181,99.6411965 L301.286181,117.547024 L309.644619,117.547024 C310.611713,114.660113 311.104508,111.637274 311.104071,108.594644 C311.104371,105.551614 310.611311,102.528404 309.643837,99.6411965 L309.643837,99.6411965 Z M262.780176,87.9393346 C259.857437,90.6852193 257.547102,94.00991 255.998501,97.6985112 L255.998501,97.6985112 L262.780079,97.6985112 Z M299.331088,97.5683513 L299.183667,97.6985112 L299.331088,97.6985112 L299.331088,97.5683513 Z M303.100402,88.9066948 L301.286181,90.4515181 L301.286181,97.6985112 L308.917972,97.6985112 C307.544607,94.4346314 305.571821,91.4532536 303.100402,88.9066948 L303.100402,88.9066948 Z M296.58737,93.1476738 L294.859373,93.5907032 L297.249788,96.8081785 L297.88415,96.2476167 L296.58737,93.1476738 Z M307.905966,84.8387118 L305.527868,86.8591045 L310.061172,92.8834686 L311.928965,91.2339346 L307.905966,84.8387118 Z M313.002658,70.9424898 L295.128603,87.3479812 L295.122835,87.3537122 L293.41654,91.4875521 L293.602283,91.6956137 L293.66612,91.7670074 L293.673354,91.7751667 L293.745599,91.855691 L298.066569,90.6368503 L316.574497,74.8747762 L317.019987,71.006987 L313.002658,70.9424898 Z M289.625329,87.0151992 L288.990967,87.5757611 L291.803508,90.1976091 L292.426334,88.5784781 L289.625329,87.0151992 Z M296.155859,73.5995005 L294.28748,75.2490345 L299.776969,80.4298847 L302.075393,78.3202257 L296.155859,73.5995005 Z M309.892,95.631 L310.068,95.476 L310.068895,95.4759821 L309.892,95.631 Z M299.331186,94.6461641 L299.331186,92.1149423 C299.118233,92.2950936 298.869081,92.4280782 298.600336,92.5050335 L298.600336,92.5050335 L298.452915,92.546607 L299.331186,94.6461641 Z" transform="translate(-249 -69)"/>
</svg>
