<svg xmlns="http://www.w3.org/2000/svg" width="70" height="70" viewBox="0 0 70 70">
  <path fill="#345CD6" d="M292.477612,122.611678 C291.0822,122.630928 289.827464,121.58666 289.343283,120.003101 L290.628406,119.477612 C290.918362,120.401699 291.661059,121.001317 292.477612,120.970571 C293.294271,121.000653 294.036917,120.40132 294.327856,119.477612 L295.61194,120.003347 C295.127745,121.586811 293.873001,122.630985 292.477612,122.611677 L292.477612,122.611678 Z M328,120 C328.001318,130.046048 323.675767,139.605972 316.128776,146.236658 L328,146.236658 L328,154.855641 L296.422806,154.855641 L296.422806,154.830459 C295.296121,154.940338 294.154941,155 292.999926,155 C273.66997,155 258,139.329908 258,119.999951 C258,100.669994 273.670067,85 293.000024,85 C312.32998,85 328,100.670043 328,120 Z M259.464083,120 C259.48494,138.512701 274.487226,153.515019 292.999926,153.535917 C306.563945,153.535917 318.79238,145.365201 323.983126,132.83369 C329.173871,120.302179 326.304699,105.877772 316.7135,96.2865514 C307.1223,86.6953312 292.697899,83.8261271 280.166377,89.0168456 C267.634855,94.207564 259.464083,106.435981 259.464083,120 L259.464083,120 Z M326.535916,147.700448 L314.356284,147.700448 C311.098698,150.223306 307.420457,152.149937 303.491618,153.391265 L326.535916,153.391265 L326.535916,147.700448 Z M292.478233,88.1343283 C297.668723,88.1404071 301.874841,92.346833 301.880597,97.5373816 C301.880597,97.7387009 301.862993,97.9354911 301.850429,98.1335962 C301.851962,98.1515659 301.847653,98.1694626 301.847653,98.1875784 C301.512717,103.065361 297.493181,106.871196 292.604442,106.93937 C287.715704,107.007543 283.591609,103.31527 283.120792,98.4487236 L283.11882,98.4455095 C283.076609,98.3200475 283.070409,98.1852654 283.100924,98.0564579 C283.091428,97.8835543 283.074627,97.7126959 283.074627,97.5373816 C283.080465,92.3463821 287.287291,88.1398033 292.478233,88.1343283 L292.478233,88.1343283 Z M292.478233,89.5952805 C288.229208,89.6021721 284.737584,92.9508134 284.553094,97.1958841 C289.737211,95.7468835 295.219572,95.74845 300.40286,97.200413 C300.221059,92.9536088 296.728874,89.6022165 292.478233,89.5952805 Z M292.478233,105.479556 C296.408793,105.472548 299.743789,102.593176 300.324043,98.705632 C295.198618,97.2202604 289.757163,97.2180315 284.630523,98.6992038 C285.208333,102.589835 288.544978,105.472667 292.478233,105.479556 Z M270.536802,110.074627 C275.727793,110.080182 279.934581,114.286841 279.940298,119.477831 C279.940298,124.670861 275.730368,128.880597 270.537338,128.880597 C265.344308,128.880597 261.134328,124.67091 261.134328,119.47788 C261.134328,114.284849 265.343772,110.074909 270.536802,110.074627 L270.536802,110.074627 Z M262.594927,119.477831 C262.601715,123.727339 265.951279,127.219105 270.196836,127.402466 C268.75008,122.218464 268.749221,116.737432 270.194352,111.552976 C265.949755,111.737777 262.601688,115.229218 262.594927,119.477831 L262.594927,119.477831 Z M271.700971,127.324524 C275.594724,126.752678 278.48019,123.412007 278.479622,119.476487 C278.479054,115.540968 275.592624,112.201129 271.698707,111.630408 C270.225507,116.758172 270.226292,122.197185 271.700971,127.324524 L271.700971,127.324524 Z M322.776119,118.432973 C322.770403,123.62351 318.564174,127.829903 313.373637,127.835821 C309.570507,127.835821 306.141775,125.545132 304.686278,122.03154 C303.230781,118.517949 304.035158,114.473556 306.724325,111.784285 C309.413492,109.095014 313.457853,108.290479 316.971501,109.74584 C320.485149,111.2012 322.776119,114.629843 322.776119,118.432973 Z M305.431333,118.432973 C305.438325,122.363434 308.317411,125.698435 312.204764,126.279003 C313.689976,121.153724 313.692509,115.712507 312.212068,110.585847 C308.321433,111.163248 305.438393,114.499732 305.431333,118.432973 Z M313.710157,126.357819 C317.959032,126.18272 321.313802,122.687946 321.315135,118.435465 C321.316467,114.182984 317.963888,110.686108 313.715124,110.508346 C315.164511,115.692329 315.162793,121.174746 313.710157,126.357819 Z M292.477968,130.970149 C297.668439,130.976147 301.874639,135.18238 301.880597,140.372851 C301.880597,144.175981 299.589739,147.604659 296.076114,149.060074 C292.562488,150.515489 288.518115,149.711018 285.828906,147.021788 C283.139697,144.332559 282.335257,140.288179 283.7907,136.774565 C285.246142,133.26095 288.674838,130.970149 292.477968,130.970149 Z M292.477968,132.431092 C288.544251,132.43787 285.20733,135.321347 284.630148,139.212497 C289.757487,140.690107 295.197881,140.689677 300.324985,139.211255 C299.747585,135.32074 296.411091,132.437864 292.477968,132.431092 L292.477968,132.431092 Z M292.477968,148.314974 C296.727246,148.308045 300.218831,144.958782 300.402488,140.713469 C297.764629,141.443042 295.040131,141.812092 292.30324,141.810564 C289.680647,141.819218 287.070458,141.450397 284.552938,140.715442 C284.737958,144.960015 288.229371,148.307995 292.477968,148.314974 Z" transform="matrix(-1 0 0 1 328 -85)"/>
</svg>
