<svg xmlns="http://www.w3.org/2000/svg" width="132" height="14" viewBox="0 0 132 14">
  <path d="M118.60625,2.93125 C119.525,2.93125 120.35625,3.325 120.96875,4.1125 L120.96875,3.19375 L122.98125,3.19375 L122.98125,10.28125 C122.98125,13.16875 120.75,13.86875 118.86875,13.86875 C117.55625,13.86875 116.50625,13.60625 115.5875,12.73125 L116.50625,11.2875 C117.11875,11.94375 117.90625,12.25 118.86875,12.25 C119.83125,12.25 120.96875,11.8125 120.96875,10.325 L120.96875,9.5375 C120.35625,10.28125 119.56875,10.71875 118.60625,10.71875 C116.68125,10.71875 115.2375,9.3625 115.2375,6.825 C115.2375,4.33125 116.68125,2.93125 118.60625,2.93125 Z M100.40625,0.30625 L100.40625,10.80625 L98.39375,10.80625 L98.39375,9.84375 C97.78125,10.5875 96.95,11.025 96.03125,11.025 C94.10625,11.025 92.6625,9.58125 92.6625,7.04375 C92.6625,4.55 94.10625,3.0625 96.03125,3.0625 C96.95,3.0625 97.78125,3.45625 98.39375,4.24375 L98.39375,0.30625 L100.40625,0.30625 Z M16.93125,0.13125 C20.125,0.13125 22.44375,2.40625 22.44375,5.55625 C22.44375,8.70625 20.125,10.98125 16.93125,10.98125 C13.78125,10.98125 11.4625,8.70625 11.4625,5.55625 C11.4625,2.40625 13.78125,0.13125 16.93125,0.13125 Z M57.4875,0.13125 C60.68125,0.13125 63,2.40625 63,5.55625 C63,8.70625 60.68125,10.98125 57.4875,10.98125 C54.3375,10.98125 52.01875,8.70625 52.01875,5.55625 C52.01875,2.40625 54.3375,0.13125 57.4875,0.13125 Z M83.51875,3.01875 C86.05625,3.01875 87.54375,4.85625 87.54375,7 C87.54375,9.1875 86.0125,10.98125 83.51875,10.98125 C81.025,10.98125 79.49375,9.14375 79.49375,7 C79.49375,4.85625 81.025,3.01875 83.51875,3.01875 Z M127.70625,2.975 C129.01875,2.975 130.025,3.4125 130.76875,4.025 L129.98125,5.38125 C129.54375,4.9 128.66875,4.50625 127.75,4.50625 C127.00625,4.50625 126.56875,4.85625 126.56875,5.25 C126.56875,6.3875 131.075,5.425 131.075,8.4875 C131.075,9.8875 129.89375,10.9375 127.79375,10.9375 C126.4375,10.98125 125.16875,10.54375 124.3375,9.8 L125.2125,8.4 C125.78125,8.925 126.875,9.45 127.8375,9.45 C128.7125,9.45 129.10625,9.1 129.10625,8.61875 C129.10625,7.35 124.6,8.4 124.6,5.38125 C124.6,4.1125 125.7375,2.975 127.70625,2.975 Z M111.16875,3.01875 C112.83125,3.01875 113.61875,3.98125 113.61875,5.425 L113.61875,10.80625 L111.65,10.80625 L111.65,6.2125 C111.65,5.1625 111.08125,4.8125 110.25,4.8125 C109.4625,4.8125 108.85,5.25 108.5,5.73125 L108.5,10.85 L106.4875,10.85 L106.4875,3.19375 L108.5,3.19375 L108.5,4.2 C108.98125,3.63125 109.9,3.01875 111.16875,3.01875 Z M26.775,0.30625 L26.775,10.80625 L24.54375,10.80625 L24.54375,0.30625 L26.775,0.30625 Z M6.86875,0.30625 L10.89375,10.80625 L8.35625,10.80625 L7.7,9.0125 L3.19375,9.0125 L2.5375,10.80625 L9.05941988e-14,10.80625 L4.06875,0.30625 L6.86875,0.30625 Z M40.775,0.30625 L40.775,2.275 L37.75625,2.275 L37.75625,10.80625 L35.48125,10.80625 L35.48125,2.275 L32.41875,2.275 L32.41875,0.30625 L40.775,0.30625 Z M44.05625,0.30625 L46.68125,4.50625 L49.2625,0.30625 L51.8,0.30625 L47.775,6.51875 L47.775,10.80625 L45.54375,10.80625 L45.54375,6.51875 L41.51875,0.30625 L44.05625,0.30625 Z M71.00625,0.30625 L71.00625,4.41875 L75.95,4.41875 L75.95,0.30625 L78.225,0.30625 L78.225,10.80625 L75.95,10.80625 L75.95,6.3875 L71.00625,6.3875 L71.00625,10.80625 L68.775,10.80625 L68.775,0.30625 L71.00625,0.30625 Z M91.13125,0.30625 L91.13125,10.80625 L89.11875,10.80625 L89.11875,0.30625 L91.13125,0.30625 Z M104.475,3.19375 L104.475,10.80625 L102.4625,10.80625 L102.4625,3.19375 L104.475,3.19375 Z M83.51875,4.8125 C82.29375,4.8125 81.59375,5.81875 81.59375,7 C81.59375,8.18125 82.29375,9.23125 83.51875,9.23125 C84.74375,9.1875 85.4875,8.18125 85.4875,7 C85.4875,5.81875 84.7875,4.8125 83.51875,4.8125 Z M96.64375,4.76875 C95.50625,4.76875 94.71875,5.6875 94.71875,7 C94.71875,8.3125 95.50625,9.1875 96.64375,9.1875 C97.34375,9.1875 98.04375,8.8375 98.39375,8.35625 L98.39375,5.64375 C98.04375,5.11875 97.34375,4.76875 96.64375,4.76875 Z M57.53125,2.1 C55.60625,2.1 54.3375,3.5875 54.3375,5.55625 C54.3375,7.525 55.5625,9.0125 57.53125,9.0125 C59.45625,9.0125 60.725,7.525 60.725,5.55625 C60.725,3.5875 59.45625,2.1 57.53125,2.1 Z M16.93125,2.1 C15.00625,2.1 13.7375,3.5875 13.7375,5.55625 C13.7375,7.525 14.9625,9.0125 16.93125,9.0125 C18.85625,9.0125 20.125,7.525 20.125,5.55625 C20.125,3.5875 18.85625,2.1 16.93125,2.1 Z M119.21875,4.76875 C118.08125,4.76875 117.29375,5.55625 117.29375,6.86875 C117.29375,8.18125 118.08125,8.96875 119.21875,8.96875 C119.875,8.96875 120.61875,8.575 120.925,8.09375 L120.925,5.64375 C120.575,5.11875 119.875,4.76875 119.21875,4.76875 Z M5.46875,2.5375 L3.80625,7.04375 L7.0875,7.04375 L5.46875,2.5375 Z M103.425,4.52970994e-14 C104.08125,4.52970994e-14 104.60625,0.525 104.60625,1.18125 C104.60625,1.8375 104.08125,2.3625 103.425,2.3625 C102.8125,2.3625 102.24375,1.8375 102.24375,1.18125 C102.24375,0.525 102.8125,4.52970994e-14 103.425,4.52970994e-14 Z"/>
</svg>
